<mxfile host="app.diagrams.net" modified="2023-04-09T06:50:41.805Z" agent="Mozilla/5.0 (Macintosh; Intel Mac OS X 10_15_7) AppleWebKit/537.36 (KHTML, like Gecko) Chrome/112.0.0.0 Safari/537.36" version="21.1.5" etag="AGLLoV8jK8xWe7VMcpxP" type="github">
  <diagram name="第 1 页" id="7fIS5jlm7RFCzihv9MnP">
    <mxGraphModel>
      <root>
        <mxCell id="0" />
        <mxCell id="1" parent="0" />
      </root>
    </mxGraphModel>
  </diagram>
</mxfile>
